<svg width="110" height="110" viewBox="0 0 110 110" fill="none" xmlns="http://www.w3.org/2000/svg">
<rect x="0.5" y="0.5" width="109" height="109" rx="7.5" stroke="#2D995F"/>
<path opacity="0.4" d="M62.1551 65.4705H47.8451C47.2151 65.4705 46.6451 65.0655 46.4351 64.4805L40.1951 47.0055C39.7001 45.6105 41.2901 44.4255 42.4751 45.2805L48.4751 49.5705C49.2701 50.1405 50.4101 49.7955 50.7551 48.8805L53.5901 41.3205C54.0701 40.0155 55.9151 40.0155 56.3951 41.3205L59.2301 48.8805C59.5751 49.8105 60.7001 50.1405 61.5101 49.5705L67.5101 45.2805C68.7101 44.4255 70.2851 45.6255 69.7901 47.0055L63.5501 64.4805C63.3551 65.0655 62.7851 65.4705 62.1551 65.4705Z" fill="#164B2E"/>
<path d="M62.5 70H47.5C46.885 70 46.375 69.49 46.375 68.875C46.375 68.26 46.885 67.75 47.5 67.75H62.5C63.115 67.75 63.625 68.26 63.625 68.875C63.625 69.49 63.115 70 62.5 70Z" fill="#164B2E"/>
<path d="M58.75 59.125H51.25C50.635 59.125 50.125 58.615 50.125 58C50.125 57.385 50.635 56.875 51.25 56.875H58.75C59.365 56.875 59.875 57.385 59.875 58C59.875 58.615 59.365 59.125 58.75 59.125Z" fill="#164B2E"/>
</svg>
