<svg width="87" height="79" viewBox="0 0 87 79" fill="none" xmlns="http://www.w3.org/2000/svg">
<g filter="url(#filter0_d_12042_553)">
<rect x="19" y="16" width="48" height="48" rx="4" fill="#2D995F"/>
<path d="M43.1601 38.87C43.0601 38.86 42.9401 38.86 42.8301 38.87C40.4501 38.79 38.5601 36.84 38.5601 34.44C38.5601 31.99 40.5401 30 43.0001 30C45.4501 30 47.4401 31.99 47.4401 34.44C47.4301 36.84 45.5401 38.79 43.1601 38.87Z" stroke="white" stroke-width="1.5" stroke-linecap="round" stroke-linejoin="round"/>
<path d="M38.1602 42.56C35.7402 44.18 35.7402 46.82 38.1602 48.43C40.9102 50.27 45.4202 50.27 48.1702 48.43C50.5902 46.81 50.5902 44.17 48.1702 42.56C45.4302 40.73 40.9202 40.73 38.1602 42.56Z" stroke="white" stroke-width="1.5" stroke-linecap="round" stroke-linejoin="round"/>
</g>
<defs>
<filter id="filter0_d_12042_553" x="-1" y="0" width="88" height="88" filterUnits="userSpaceOnUse" color-interpolation-filters="sRGB">
<feFlood flood-opacity="0" result="BackgroundImageFix"/>
<feColorMatrix in="SourceAlpha" type="matrix" values="0 0 0 0 0 0 0 0 0 0 0 0 0 0 0 0 0 0 127 0" result="hardAlpha"/>
<feOffset dy="4"/>
<feGaussianBlur stdDeviation="10"/>
<feComposite in2="hardAlpha" operator="out"/>
<feColorMatrix type="matrix" values="0 0 0 0 0.656944 0 0 0 0 0.656944 0 0 0 0 0.656944 0 0 0 0.25 0"/>
<feBlend mode="normal" in2="BackgroundImageFix" result="effect1_dropShadow_12042_553"/>
<feBlend mode="normal" in="SourceGraphic" in2="effect1_dropShadow_12042_553" result="shape"/>
</filter>
</defs>
</svg>
