<svg width="60" height="60" viewBox="0 0 60 60" fill="none" xmlns="http://www.w3.org/2000/svg">
<rect width="60" height="60" rx="30" fill="#ACE7C7"/>
<path d="M35.9583 25.6253C35.9583 23.8415 35.235 22.227 34.0673 21.0593C32.8984 19.8903 31.2838 19.167 29.5 19.167C27.7162 19.167 26.1016 19.8903 24.9327 21.0593C23.765 22.227 23.0417 23.8415 23.0417 25.6253C23.0417 27.4091 23.765 29.0237 24.9327 30.1914C26.1016 31.3603 27.7162 32.0837 29.5 32.0837C31.2838 32.0837 32.8984 31.3603 34.0673 30.1914C34.668 29.5925 35.1443 28.8808 35.4688 28.0972C35.7934 27.3136 35.9597 26.4735 35.9583 25.6253ZM21.75 38.542C21.75 39.8337 24.6562 41.1253 29.5 41.1253C34.0441 41.1253 37.25 39.8337 37.25 38.542C37.25 35.9587 34.2094 33.3753 29.5 33.3753C24.6562 33.3753 21.75 35.9587 21.75 38.542Z" fill="#3D8A61"/>
</svg>
