<svg width="522" height="219" viewBox="0 0 522 219" fill="none" xmlns="http://www.w3.org/2000/svg">
<path d="M0.0625 219V0.818175H59.2955V86.0454H137.705V0.818175H196.938V219H137.705V133.773H59.2955V219H0.0625ZM225.062 219V0.818175H319.239C335.432 0.818175 349.601 3.76562 361.746 9.66051C373.891 15.5554 383.337 24.0426 390.084 35.1222C396.831 46.2017 400.205 59.4829 400.205 74.9659C400.205 90.5909 396.724 103.766 389.764 114.49C382.875 125.214 373.18 133.311 360.68 138.78C348.251 144.249 333.727 146.983 317.108 146.983H260.858V100.96H305.176C312.136 100.96 318.067 100.108 322.967 98.4034C327.939 96.6278 331.739 93.8224 334.366 89.9872C337.065 86.152 338.415 81.1449 338.415 74.9659C338.415 68.7159 337.065 63.6378 334.366 59.7315C331.739 55.7543 327.939 52.8423 322.967 50.9957C318.067 49.0781 312.136 48.1193 305.176 48.1193H284.295V219H225.062ZM352.903 118.858L407.449 219H343.102L289.835 118.858H352.903ZM425.453 0.818175H499.175L549.885 124.398H552.442L603.152 0.818175H676.874V219H618.919V92.8636H617.214L568.635 217.295H533.692L485.112 92.0114H483.408V219H425.453V0.818175Z" fill="#E9ECEF"/>
</svg>
